<?xml version="1.0" encoding="UTF-8" standalone="no"?>
<!DOCTYPE svg PUBLIC "-//W3C//DTD SVG 1.1//EN" "http://www.w3.org/Graphics/SVG/1.1/DTD/svg11.dtd">
<svg width="100%" height="100%" viewBox="0 0 1045 232" version="1.1" xmlns="http://www.w3.org/2000/svg" xmlns:xlink="http://www.w3.org/1999/xlink" xml:space="preserve" xmlns:serif="http://www.serif.com/" style="fill-rule:evenodd;clip-rule:evenodd;stroke-linejoin:round;stroke-miterlimit:2;">
    <g transform="matrix(1,0,0,1,-367.996484,-371.06527)">
        <g id="Background" transform="matrix(1.482422,0,0,1.482422,10,0)">
            <path d="M246.695,250.31C246.857,250.553 247.91,252.126 248.738,253.335C249.623,254.417 249.909,256.054 249.953,256.307C252.379,261.975 252.892,261.575 256.639,266.408C258.65,269.002 258.765,268.806 260.501,271.499C260.681,271.778 263.495,274.379 264.745,275.053C265.435,276.691 264.585,277.863 267.94,278.242C270.327,282.237 270.24,282.214 270.466,282.543C270.98,282.976 271.495,283.409 272.009,283.842C274.197,285.13 274.137,285.153 275.79,287.122C277.906,289.222 277.585,289.66 280.517,290.485C281.286,291.364 281.257,291.26 285.193,294.833C285.508,295.178 285.824,295.523 286.139,295.868C287.215,296.511 287.161,296.468 288.368,296.857C291.283,301.381 294.014,301.203 294.568,301.438L295.658,302.198C298.953,306.024 299.486,305.185 300.654,305.432C300.693,305.495 299.704,306.916 304.561,307.41L304.772,308.192C305.266,308.793 305.761,309.393 306.256,309.994C307.793,310.747 311.151,312.109 311.581,312.283C317.842,318.151 317.949,317.92 323.23,324.629C323.411,324.855 324.422,326.119 325.208,327.655C326.898,330.957 328.526,331.771 325.412,333.724C323.698,331.555 324.018,330.955 321.306,330.656C316.268,320.385 308.859,331.663 301.495,324.507C296.043,319.209 296.191,318.967 294.242,311.585C293.306,308.041 291.632,309.717 291.755,310.519C294.318,327.265 305.522,329.207 307.467,329.544C309.362,329.873 307.774,332.543 307.67,334.67C307.432,335.016 307.195,335.362 306.958,335.707C306.411,336.24 305.491,336.265 304.943,336.797C303.162,338.528 304.847,339.896 304.844,339.975C301.077,342.141 300.79,345.921 300.743,346.539C299.491,348.022 299.757,348.097 298.602,349.541C297.352,352.362 296.94,354.183 296.845,354.601C296.721,355.15 295.789,359.274 295.68,361.541C295.583,362.534 295.487,363.528 295.39,364.522C295.34,365.002 295.08,367.486 294.503,370.5C292.215,376.417 294.285,378.432 290.263,393.325C288.915,396.391 288.673,396.132 286.621,398.856C284.583,399.808 284.614,399.836 282.451,399.609L282.223,398.842C283.564,397.242 287.221,396.084 288.569,380.505C288.599,380.154 289.533,369.356 287.295,376.294C286.176,379.763 286.252,384.666 286.135,385.105C283.183,396.238 281.6,395.453 273.636,403.814C271.373,405.238 269.063,406.476 268.658,406.693C266.353,405.672 265.622,404.728 265.43,404.48C266.956,402.418 266.992,402.561 268.342,400.294C273.409,393.946 272.861,393.685 274.824,388.645C275.8,386.141 277.934,386.954 278.214,380.463C278.333,377.712 280.142,378.28 280.069,375.556C283.419,371.267 282.025,370.723 283.794,365.572C283.875,365.334 284.725,362.859 284.541,362.516C284.275,362.019 283.568,361.861 283.302,361.364C283.65,361.045 283.997,360.726 284.345,360.406C285.038,359.159 285.5,359.589 286.177,358.372C286.253,358.234 286.185,358.226 286.286,356.405L286.238,355.466C288.011,353.204 288.548,353.352 288.441,350.454C289.838,348.671 289.541,348.574 290.228,346.472C292.037,344.556 292.033,344.654 293.336,342.43C294.993,341.212 294.984,341.243 295.973,339.438C296.259,338.204 296.796,337.354 295.581,337.786C295.581,337.786 293.677,339.442 293.512,339.586C283.35,343.444 283.261,343.21 282.437,343.672L281.519,343.139C280.014,342.626 280.09,342.631 278.484,342.586L278.677,341.419C282.097,335.792 298.691,332.798 293.367,330.94C290.484,329.933 285.222,339.144 270.349,334.979C269.84,334.837 267.589,334.788 267.348,334.783L266.474,334.555C265.133,332.69 265.161,332.727 265.131,332.691C268.869,328.651 293.796,329.19 290.229,325.874C289.183,324.9 289.011,326.832 272.461,327.731L270.447,327.775C263.07,327.526 257.8,322.313 255.709,320.316C254.074,318.754 255.412,317.064 256.505,317.469C258.65,318.265 281.963,321.24 286.43,321.303C286.63,321.014 286.829,320.725 287.029,320.436C286.336,319.204 286.152,319.135 271.501,317.496C262.119,316.446 255.153,311.32 251.077,309.746C250.967,309.272 250.857,308.797 250.747,308.323C250.617,307.918 250.182,306.564 248.015,303.762L247.6,303.423C246.193,296.768 245.246,297.087 245.216,296.502C245.016,292.635 249.942,296.769 253.586,299.361C263.692,306.549 284.451,312.572 285.506,312.612C295.413,312.986 278.783,309.457 265.275,302.975C252.066,296.636 251.018,292.551 248.011,289.815C246.049,288.281 245.985,288.401 245.861,288.227C245.521,287.751 245.865,285.779 244.163,284.818C240.525,282.764 243.234,281.369 241.494,274.501C243.589,273.452 243.795,272.826 245.673,274.3C247.146,275.647 247.151,275.625 247.264,275.755C261.416,292.06 277.902,301.033 278.461,301.068C281.597,301.263 278.291,299.736 270.979,294.147C254.981,281.92 251.001,275.362 249.768,273.329C249.549,272.96 247.821,270.04 247.399,268.52C246.212,266.057 246.428,266.063 245.343,263.522C245.3,263.456 245.355,262.443 244.183,261.762C241.742,260.344 243.299,259.624 243.323,255.546C244.451,252.558 244.241,252.461 246.695,250.31Z" style="fill-opacity:0.98;"/>
            <path d="M425.5,333.895C424.853,333.895 417.943,333.901 417.43,334.421C415.927,335.941 418.737,365.69 415.61,365.858C407.073,366.318 405.137,365.83 405.125,363.514C405.096,357.505 404.77,289.818 405.139,288.399C405.729,286.132 417.712,287.393 429.5,287.132C430.388,287.112 430.331,287.675 440.548,288.173C441.056,288.198 440.867,288.748 446.59,290.156C447.004,290.258 452.811,294.851 453.593,296.442C457.356,304.097 457.823,304.035 457.866,312.504C457.922,323.467 448.766,331.216 445.596,331.866C443.52,332.291 442.995,333.337 446.954,341.28C447.289,341.952 450.364,348.123 451.258,349.624C452.1,351.04 455.482,359.561 457.176,361.756C458.211,363.097 458.075,365.759 456.597,365.843C447.726,366.35 445.919,365.673 444.763,363.365C434.844,343.56 434.293,343.868 433.4,341.551C430.472,333.96 429.582,334.067 425.5,333.895ZM431.492,296.874C434.235,297.553 440.227,297.543 443.725,302.361C446.174,305.735 451.731,319.856 434.594,324.741C431.946,325.496 417.777,325.112 417.675,325.005C416.39,323.663 417.381,308.747 416.905,299.505C416.813,297.725 416.555,297.156 418.389,297.029C424.996,296.573 424.937,296.87 431.492,296.874Z" style="fill-opacity:0.88;"/>
            <path d="M636.5,345.896C616.146,345.896 614.645,345.743 613.424,346.401C612.869,346.701 611.142,350.232 610.887,351.559C609.786,357.295 607.476,359.51 606.888,362.559C606.142,366.428 604.063,366.282 596.407,365.836C593.955,365.693 594.999,364.225 599.392,350.456C599.568,349.905 601.369,344.261 601.739,343.619C603.522,340.522 606.989,329.686 607.383,328.453C607.557,327.909 609.34,322.336 609.809,321.744C611.573,319.517 610.354,319.021 611.743,316.62C614.34,312.131 615.952,305.591 622.412,288.451C623.099,286.627 634.295,285.234 635.603,290.458C637.697,298.821 639.01,298.336 641.252,306.602C642.516,311.264 644.169,310.658 649.279,328.608C649.596,329.723 650.27,329.267 650.598,330.452C652.177,336.147 652.489,335.963 652.612,336.454C653.406,339.624 653.446,339.509 654.597,342.46C661.673,360.596 660.661,361.026 661.722,362.341C665.296,366.768 659.931,365.875 658.501,365.865C652.821,365.825 650.766,368.082 649.383,362.548C648.603,359.432 648.171,359.634 647.395,356.543C646.468,352.847 646.103,353.021 644.989,349.388C643.456,344.386 641.76,346.27 636.5,345.896ZM628.5,337.131C620.17,337.14 620.223,337.154 619.504,337.14C613.825,337.03 618.874,334.114 619.861,328.555C620.006,327.742 620.86,322.934 622.946,318.7C626.191,312.111 625.908,309.864 626.937,307.697C628.02,305.417 627.249,302.018 627.655,301.624C629.697,299.644 629.695,305.757 629.846,306.289C633.121,317.813 633.913,317.536 634.108,318.557C635.385,325.228 640.565,335.354 640.455,336.482C640.362,337.446 636.57,337.134 628.5,337.131Z" style="fill-opacity:0.9;"/>
            <path d="M558.662,315.307C558.548,318.939 560.276,317.546 560.346,317.346C560.399,317.194 560.346,317.197 560.347,315.324C561.327,313.95 565.544,305.838 569.719,299.613C572.319,295.738 573.538,287.02 579.498,287.129C587.395,287.273 588.758,285.909 588.906,288.458C588.982,289.762 571.849,316.025 569.6,320.561C567.949,323.892 564.231,324.934 567.189,328.747C567.515,329.167 566.861,329.507 570.282,334.613C579.529,348.412 584.371,358.006 588.2,362.74C590.184,365.194 588.655,365.941 585.509,365.88C582.716,365.826 576.619,367.167 574.742,363.375C572.526,358.899 571.653,359.421 570.001,354.711C569.51,353.31 565.257,347.825 564.811,347.251C564.306,346.599 564.868,346.372 559.779,338.252C558.942,336.916 559.472,335.404 558.5,335.388C556.433,335.353 558.598,337.201 556.28,340.366C555.562,341.346 554.645,343.911 551.703,347.654C551.263,348.215 551.869,348.53 547.277,355.385C546.745,356.179 543.111,365.729 540.567,365.83C531.62,366.184 527.579,366.305 530.248,363.323C530.398,363.155 542.882,340.891 546.721,335.635C548.28,333.501 547.533,332.961 550.708,328.624C553.259,325.141 546.201,318.096 541.753,309.369C541.012,307.913 535.141,299.186 534.742,298.375C530.147,289.014 526.875,287.284 530.393,287.109C542.277,286.516 542.235,288.191 543.289,290.61C543.761,291.694 544.124,291.467 550.925,303.271C554.19,308.938 554.925,308.4 557.918,314.275C557.964,314.366 557.918,314.275 558.662,315.307Z" style="fill-opacity:0.89;"/>
            <path d="M471.108,307.5C471.108,290.594 470.288,287.043 473.506,286.995C477.112,286.941 506.995,286.497 518.59,287.154C520.333,287.252 519.88,294.919 519.84,295.601C519.733,297.405 515.979,296.858 514.5,296.858C483.614,296.852 481.671,296.277 481.871,299.504C482.333,306.973 481.506,319.615 482.455,320.544C483.618,321.683 510.923,320.839 515.599,321.111C518.023,321.252 516.725,330.2 516.463,330.464C515.573,331.36 483.103,330.537 482.665,330.981C481.343,332.323 481.864,332.576 482.001,354.514C482.026,358.445 486.395,356.911 517.52,357.117C521.329,357.143 520.369,365.43 518.594,365.822C518.294,365.889 472.749,365.894 472.413,365.82C470.902,365.485 471.108,364.704 471.108,307.5Z" style="fill-opacity:0.92;"/>
            <path d="M328.52,290.527C331.005,291.011 330.957,290.85 333.376,290.056C341.854,290.285 341.776,290.49 342.508,290.48C345.867,291.006 345.47,291.835 348.628,293.205C349.264,293.705 349.69,294.439 350.325,294.939C350.623,295.173 352.362,295.726 352.458,295.673C353.015,295.367 353.172,294.558 353.729,294.253L354.332,294.802C354.371,294.828 356.811,297.275 363.503,294.465C364.071,294.457 368.406,294.397 370.237,292.218C370.859,292.38 370.899,293.495 371.521,293.658C374.505,294.437 374.356,293.371 377.506,292.082C382.168,290.695 383.193,291.673 383.425,291.721C383.281,292.059 382.316,294.321 381.535,295.904C379.654,295.973 379.667,296.008 378.373,297.359C373.216,298.087 373.333,298.327 368.5,300.449C367.834,300.801 367.169,301.152 366.503,301.503C366.012,301.589 363.015,302.111 360.796,304C358.378,306.059 358.043,305.541 355.787,307.832C355.366,308.873 355.273,308.731 354.894,309.71C354.256,309.984 350.53,311.585 349.567,316.556C349.318,317.014 348.676,316.975 347.073,322.397C345.221,325.707 345.307,325.656 344.288,329.352C344.066,329.878 343.737,332.076 342.206,333.353C341.862,333.897 339.222,338.077 338.495,340.495C338.223,341.185 337.951,341.874 337.68,342.564C335.429,343.795 335.644,343.933 334.157,346.088C333.901,346.544 333.645,346.999 333.39,347.455C330.889,348.917 330.962,348.95 329.468,351.438C328.91,351.855 328.353,352.273 327.795,352.69C325.661,353.452 325.04,352.707 322.479,356.445C321.32,357.186 319.906,357.727 319.673,357.816C315.075,357.657 314.63,359.858 313.539,360.821C313.499,360.828 313.184,360.376 311.508,361.508C308.31,362.406 307.137,364.035 305.477,367.481C305.076,368.674 305.56,369.045 304.383,369.403C302.431,369.997 304.401,372.084 302.131,374.147C298.298,377.631 303.2,379.792 299.567,383.546C299.336,383.784 299.001,384.131 298.024,387.391C296.334,391.043 296.258,390.941 294.869,394.777C293.462,395.071 293.487,395.343 292.263,394.741C296.221,373.334 295.616,373.169 296.497,371.498C300.012,365.139 300.12,364.92 300.408,364.334C300.7,364.008 300.993,363.682 301.285,363.356C302.455,362.451 302.397,362.518 303.373,361.402C305.959,359.912 305.386,358.992 308.263,358.23C313.793,356.765 307.388,356.378 304.423,355.648C302.103,353.942 301.163,354.253 301.44,351.437C303.329,349.378 303.901,350.605 306.321,349.301C308.669,349.749 308.714,350.16 309.499,349.497C310.257,348.857 309.771,348.566 310.531,348.075C310.993,347.777 310.962,348.552 311.419,348.257C312.315,347.597 312.259,347.645 313.358,347.208C314.409,346.686 314.477,346.973 315.481,346.418C316.111,346.066 316.741,345.714 317.37,345.362C328.098,341.21 333.139,331.561 334.071,329.097L335.036,328.237C337.339,324.683 339.527,317.756 339.571,317.546L340.35,316.454L340.623,315.536C345.283,307.782 344.192,306.234 351.634,303.613C353.059,303.11 352.073,301.122 350.455,301.924C348.518,302.884 348.181,302.724 347.073,300.856C343.833,295.389 331.685,294.63 327.609,303.554C327.463,303.72 325.779,305.627 325.779,305.627C324.665,307.678 325.782,307.726 325.784,308.905C324.675,310.512 324.772,310.54 324.655,312.46C324.128,318.717 326.181,319.4 324.604,322.627C318.945,315.299 317.889,315.992 315.351,309.472C315.445,309.187 317.405,302.196 317.582,301.563L318.003,301.22C318.115,301.076 319.393,299.422 319.393,299.422C320.523,297.853 319.319,297.611 319.305,297.278C319.488,297.148 319.38,297.038 321.413,295.422C323.701,294.933 323.524,294.699 325.299,293.11L325.567,292.67C327.197,291.723 327.107,291.696 328.52,290.527Z" style="fill-opacity:0.97;"/>
            <path d="M690.308,322.432C690.45,321.955 691.511,318.391 692.805,316.743C694.179,314.995 696.677,308.912 696.805,308.755C699.339,305.653 698.981,305.463 704.07,295.292C707.418,288.601 706.875,286.821 711.5,287.131C717.431,287.529 722.326,285.318 719.259,290.38C713.953,299.14 714.732,299.55 714.186,300.251C712.912,301.886 711.169,305.268 710.936,305.72C698.892,329.086 699.604,329.459 698.195,331.256C692.188,338.915 695.682,349.981 694.83,364.587C694.725,366.387 686.167,365.87 685.408,365.824C682.542,365.651 685.164,339.71 683.719,336.397C683.549,336.006 682.1,332.683 681.291,331.658C679.32,329.16 670.446,309.922 668.773,308.245C666.801,306.269 666.866,304.421 666.277,303.672C664.364,301.242 658.911,289.013 658.998,288.549C659.312,286.873 669.999,285.082 672.258,289.624C685.81,316.877 685.075,317.265 686.716,319.337C688.378,321.437 687.574,321.761 688.763,324.194C688.931,324.573 688.402,325.043 688.57,325.422C688.761,325.851 690.191,325.729 690.289,325.314C690.51,324.379 690.087,323.367 690.308,322.432Z" style="fill-opacity:0.9;"/>
            <path d="M736.5,330.117C737.211,330.124 744.355,330.199 745.365,330.769C755.357,336.399 747.838,343.126 751.236,346.751C758.894,354.919 751.321,365.375 744.507,364.89C740.797,364.626 731.734,366.302 731.989,362.494C732.335,357.333 732.02,333.843 732.159,331.414C732.256,329.743 733.075,330.475 736.5,330.117ZM742.471,349.88C754.081,354.302 739.657,361.057 739.839,357.433C740.177,350.733 740.153,349.991 742.471,349.88ZM741.479,336.579C748.239,340.639 740.766,344.212 740.587,344.068C739.601,343.279 740.039,337.78 740.082,337.234C740.548,337.015 741.013,336.797 741.479,336.579Z" style="fill-opacity:0.82;"/>
            <path d="M840.065,348.481C841.019,344.581 842.454,346.118 846.5,346.097C853.01,346.063 856.54,345.264 854.598,351.536C853.291,355.758 853.759,357.592 852.209,359.251C844.708,367.273 843.383,365.265 832.443,364.855C831.223,364.809 830.261,363.583 829.604,363.298C818.722,358.571 821.119,342.625 821.172,341.445C821.251,339.698 826.636,332.605 828.632,331.985C830.723,331.336 830.31,330.432 832.444,330.191C838.992,329.451 838.972,329.283 839.523,329.429C846.7,331.327 847.395,330.15 852.717,335.309C855.427,337.936 849.489,342.372 846.517,339.482C833.98,327.293 820.616,347.949 832.35,356.733C841.38,363.492 847.324,353.407 847.001,352.648C845.959,350.201 840.299,355.012 840.065,348.481Z" style="fill-opacity:0.85;"/>
            <path d="M899.895,340.463C898.537,342.502 897.98,342.493 898.534,343.485C899.614,345.421 899.725,343.258 901.506,342.12C901.779,341.946 902.205,342.299 902.477,342.125C909.303,342.135 910.196,341.133 914.276,346.636C919.443,353.605 913.188,364.733 909.561,364.861C893.859,365.414 893.438,364.892 893.154,363.606C893.092,363.322 893.089,328.748 893.164,328.411C893.739,325.85 898.185,327.029 898.618,327.144C900.441,327.627 899.892,333.122 899.895,340.463ZM903.533,359.108C902.851,358.812 897.941,356.676 900.299,350.399C903.459,341.987 915.466,356.886 903.533,359.108Z" style="fill-opacity:0.84;"/>
            <path d="M931.5,343.103C936.878,342.709 939.028,344.714 939.133,340.495C939.322,332.865 937.196,328.458 944.599,330.169C946.325,330.569 945.82,332.697 945.855,356.5C945.856,357.138 945.866,364.071 945.466,364.466C945.17,364.758 939.264,365.873 939.139,363.598C938.507,352.02 940.107,350.049 936.513,350.026C933.873,350.009 927.187,349.281 927.038,351.389C926.299,361.772 928.917,364.598 923.501,364.862C921.863,364.942 920.133,365.555 920.132,362.521C920.113,330.836 920.325,330.412 921.397,330.166C929.283,328.361 925.999,333.484 926.877,341.456C927.039,342.921 931.108,343.087 931.5,343.103Z" style="fill-opacity:0.87;"/>
            <path d="M871.073,355.5C871.019,354.806 870.391,346.706 866.712,347.972C864.798,348.63 865.634,349.398 864.846,363.6C864.821,364.046 864.739,365.531 859.402,364.861C857.994,364.684 858.092,364.004 858.12,344.485C858.127,339.82 864.713,343.182 877.441,342.184C892.047,341.04 888.875,347.898 888.867,362.522C888.865,366.312 887.183,365.334 883.405,364.851C881.2,364.569 882.36,355.632 882.144,351.508C881.836,345.658 877.034,349.146 876.894,351.535C876.264,362.265 878.613,365.314 873.491,364.862C870.08,364.561 871.008,361.198 871.073,355.5Z" style="fill-opacity:0.86;"/>
            <path d="M766.495,342.082C774.436,342.549 778.384,341.447 778.832,343.399C778.916,343.765 778.913,363.286 778.842,363.607C778.235,366.327 761.575,364.541 761.508,364.49C757.164,361.168 757.151,358.186 757.148,357.529C757.109,348.474 756.419,347.9 760.621,343.624C762.715,341.495 763.097,342.398 766.495,342.082ZM773.087,354.459C768.01,366.422 758.436,351.403 766.398,348.293C771.732,346.21 772.969,353.741 773.087,354.459Z" style="fill-opacity:0.85;"/>
            <path d="M784.092,350.5C784.149,344.359 782.572,340.912 788.589,342.178C791.621,342.816 787.593,356.945 792.396,358.721C797.88,360.748 795.94,346.956 796.142,343.407C796.216,342.114 798.261,342.124 798.474,342.125C807.575,342.169 803.541,348.366 802.844,359.555C802.46,365.703 789.828,365.869 787.759,364.191C781.839,359.391 784.131,358.118 784.092,350.5Z" style="fill-opacity:0.85;"/>
            <path d="M251.077,309.746C255.153,311.32 262.119,316.446 271.501,317.496C286.152,319.135 286.336,319.204 287.029,320.436C286.829,320.725 286.63,321.014 286.43,321.303C281.963,321.24 258.65,318.265 256.505,317.469C255.412,317.064 254.074,318.754 255.709,320.316C257.8,322.313 263.07,327.526 270.447,327.775C271.449,328.088 271.374,327.979 272.461,327.731C289.011,326.832 289.183,324.9 290.229,325.874C293.796,329.19 268.869,328.651 265.131,332.691C264.472,332.336 263.814,331.981 263.155,331.627C264.489,329.969 266.089,329.661 264.376,328.777C264.169,328.67 263.877,328.519 261.756,330.059C260.6,328.614 260.548,328.653 260.507,328.498C258.873,322.257 252.227,324.427 252.168,321.479C252.101,318.141 252.791,318.377 254.559,315.535C254.845,315.076 255.119,314.636 251.077,309.746Z" style="fill-opacity:0.26;"/>
            <path d="M327.609,303.554C331.685,294.63 343.833,295.389 347.073,300.856C348.181,302.724 348.518,302.884 350.455,301.924C352.073,301.122 353.059,303.11 351.634,303.613C344.192,306.234 345.283,307.782 340.623,315.536L339.67,313.431C337.171,310.133 338.904,308.545 336.587,308.142C334.177,307.722 334.606,307.013 334.248,304.625C334.001,304.148 332.393,301.044 327.609,303.554Z" style="fill-opacity:0.09;"/>
            <path d="M248.011,289.815C251.018,292.551 252.066,296.636 265.275,302.975C278.783,309.457 295.413,312.986 285.506,312.612C284.451,312.572 263.692,306.549 253.586,299.361C249.942,296.769 245.016,292.635 245.216,296.502C245.246,297.087 246.193,296.768 247.6,303.423C243.346,302.3 243.392,301.743 242.272,297.549C242.145,297.076 242.254,297.165 243.031,295.341C243.031,295.341 242.348,293.764 242.289,293.626C243,293.174 243.71,292.722 244.421,292.27C246.611,291.517 247.009,291.92 248.011,289.815Z" style="fill-opacity:0.17;"/>
            <path d="M321.306,330.656C319.926,329.697 310.423,328.374 311.127,332.53C311.425,334.294 312.245,335.54 310.527,334.93C309.11,334.427 309.167,334.47 307.67,334.67C307.774,332.543 309.362,329.873 307.467,329.544C305.522,329.207 294.318,327.265 291.755,310.519C291.632,309.717 293.306,308.041 294.242,311.585C296.191,318.967 296.043,319.209 301.495,324.507C308.859,331.663 316.268,320.385 321.306,330.656Z" style="fill-opacity:0.2;"/>
            <path d="M249.768,273.329C251.001,275.362 254.981,281.92 270.979,294.147C278.291,299.736 281.597,301.263 278.461,301.068C277.902,301.033 261.416,292.06 247.264,275.755C247.151,275.625 247.146,275.647 245.673,274.3C247.684,273.608 247.618,273.644 249.768,273.329Z" style="fill-opacity:0.25;"/>
            <path d="M282.223,398.842L281.572,399.857C280.43,400.247 279.842,399.978 280.066,401.389C280.633,404.962 276.972,404.301 273.636,403.814C281.6,395.453 283.183,396.238 286.135,385.105C286.252,384.666 286.176,379.763 287.295,376.294C289.533,369.356 288.599,380.154 288.569,380.505C287.221,396.084 283.564,397.242 282.223,398.842Z" style="fill-opacity:0.22;"/>
            <path d="M267.348,334.783C267.589,334.788 269.84,334.837 270.349,334.979C285.222,339.144 290.484,329.933 293.367,330.94C298.691,332.798 282.097,335.792 278.677,341.419C274.191,336.821 273.452,339.323 272.399,339.622C269.615,337.335 269.088,337.89 267.348,334.783Z" style="fill-opacity:0.17;"/>
            <path d="M335.552,303.495C338.537,294.752 348.166,300.744 342.612,306.619C341.469,307.828 338.347,309.121 335.552,303.495Z" style="fill-opacity:0.97;"/>
            <path d="M294.503,370.5C295.576,371.109 295.489,371.063 295.576,371.109C296.05,371.364 296.006,371.234 296.497,371.498C295.616,373.169 296.221,373.334 292.263,394.741C292.091,394.328 292.001,394.463 291.835,394.064C291.162,392.452 290.557,393.463 290.263,393.325C294.285,378.432 292.215,376.417 294.503,370.5Z" style="fill-opacity:0.71;"/>
            <path d="M315.351,309.472C317.889,315.992 318.945,315.299 324.604,322.627C324.146,323.294 323.688,323.962 323.23,324.629C317.949,317.92 317.842,318.151 311.581,312.283C313.477,310.886 313.396,310.953 315.351,309.472Z" style="fill-opacity:0.14;"/>
            <path d="M293.512,339.586L294.54,339.341C294.139,340.371 293.737,341.4 293.336,342.43C292.033,344.654 292.037,344.556 290.228,346.472C289.802,345.033 290.036,344.15 286.558,344.326C284.312,344.44 284.167,345.036 282.437,343.672C283.261,343.21 283.35,343.444 293.512,339.586Z" style="fill-opacity:0.04;"/>
            <path d="M366.503,301.503C365.677,305.46 365.179,305.22 364.598,305.79C362.801,305.081 362.51,303.839 361.424,305.389C359.317,308.393 356.272,307.909 355.787,307.832C358.043,305.541 358.378,306.059 360.796,304C363.015,302.111 366.012,301.589 366.503,301.503Z" style="fill-opacity:0.05;"/>
            <path d="M304.423,355.648C307.388,356.378 313.793,356.765 308.263,358.23C305.386,358.992 305.959,359.912 303.373,361.402C303.471,360.796 303.569,360.189 303.667,359.583C305.279,358.081 304.668,357.838 304.423,355.648Z" style="fill-opacity:0.18;"/>
            <path d="M311.508,361.508C310.163,368.254 307.45,366.719 305.477,367.481C307.137,364.035 308.31,362.406 311.508,361.508Z" style="fill-opacity:0.07;"/>
            <path d="M304.561,307.41C306.493,307.855 306.447,307.498 308.484,307.623C308.931,307.651 309.708,307.698 311.581,312.283C311.151,312.109 307.793,310.747 306.256,309.994C305.761,309.393 305.266,308.793 304.772,308.192L304.561,307.41Z" style="fill-opacity:0.04;"/>
            <path d="M317.582,301.563C317.405,302.196 315.445,309.187 315.351,309.472C310.8,302.321 317.479,301.595 317.582,301.563Z" style="fill-opacity:0.04;"/>
            <path d="M342.206,333.353C342.676,334.224 343.185,333.662 343.646,334.515C343.683,334.585 343.707,334.628 343.347,335.465C341.895,338.844 341.908,339.031 338.495,340.495C339.222,338.077 341.862,333.897 342.206,333.353Z" style="fill-opacity:0.08;"/>
            <path d="M298.024,387.391C300.645,391.401 299.751,392.314 295.578,394.564L294.869,394.777C296.258,390.941 296.334,391.043 298.024,387.391Z" style="fill-opacity:0.06;"/>
            <path d="M370.237,292.218C374.12,288.969 377.07,291.825 377.506,292.082C374.356,293.371 374.505,294.437 371.521,293.658C370.899,293.495 370.859,292.38 370.237,292.218Z" style="fill-opacity:0.04;"/>
            <path d="M337.68,342.564C337.856,343.208 338.032,343.853 338.209,344.497C338.205,344.861 338.2,345.224 338.196,345.588C338.142,348.509 336.71,347.569 334.157,346.088C335.644,343.933 335.429,343.795 337.68,342.564Z" style="fill-opacity:0.04;"/>
            <path d="M275.79,287.122C278.075,286.137 278.256,285.141 279.573,286.427C279.811,286.659 279.856,286.703 280.517,290.485C277.585,289.66 277.906,289.222 275.79,287.122Z" style="fill-opacity:0.05;"/>
            <path d="M288.368,296.857C290.669,297.281 290.688,297.195 292.45,298.723C293.605,299.339 293.532,299.264 293.605,299.339C293.987,299.736 293.436,299.882 293.827,300.301C294.187,300.687 294.334,300.121 294.664,300.475L294.568,301.438C294.014,301.203 291.283,301.381 288.368,296.857Z" style="fill-opacity:0.08;"/>
            <path d="M333.39,347.455C333.569,349.775 334.729,350.654 332.46,351.116C332.224,351.164 332.238,351.14 329.468,351.438C330.962,348.95 330.889,348.917 333.39,347.455Z" style="fill-opacity:0.05;"/>
            <path d="M248.015,303.762C250.182,306.564 250.617,307.918 250.747,308.323C245.17,309.319 247.953,305.25 248.015,303.762Z" style="fill-opacity:0.05;"/>
            <path d="M311.419,348.257C310.962,348.552 310.993,347.777 310.531,348.075C309.771,348.566 310.257,348.857 309.499,349.497C308.714,350.16 308.669,349.749 306.321,349.301C307.653,345.07 309.116,347.189 311.419,348.257Z" style="fill-opacity:0.04;"/>
            <path d="M321.306,330.656C324.018,330.955 323.698,331.555 325.412,333.724C323.289,334.529 322.08,335.815 322.165,333.535C322.225,331.913 322.493,331.804 321.306,330.656Z" style="fill-opacity:0.04;"/>
            <path d="M348.628,293.205C350.948,293.058 351.179,292.347 353.729,294.253C353.172,294.558 353.015,295.367 352.458,295.673C352.362,295.726 350.623,295.173 350.325,294.939C349.69,294.439 349.264,293.705 348.628,293.205Z" style="fill-opacity:0.04;"/>
            <path d="M295.68,361.541L296.016,361.25C296.852,361.903 297.688,362.556 298.523,363.209C296.628,365.017 296.7,365.215 296.482,365.156C295.83,364.979 296.057,364.703 295.39,364.522C295.487,363.528 295.583,362.534 295.68,361.541Z" style="fill-opacity:0.05;"/>
            <path d="M899.895,340.463C901.014,341.571 900.932,341.665 902.477,342.125C902.205,342.299 901.779,341.946 901.506,342.12C899.725,343.258 899.614,345.421 898.534,343.485C897.98,342.493 898.537,342.502 899.895,340.463Z" style="fill-opacity:0.07;"/>
            <path d="M268.342,400.294C266.992,402.561 266.956,402.418 265.43,404.48L265.178,403.361C265.912,400.904 265.851,400.452 268.342,400.294Z" style="fill-opacity:0.07;"/>
            <path d="M319.305,297.278C319.319,297.611 320.523,297.853 319.393,299.422C319.393,299.422 318.115,301.076 318.003,301.22C316.138,297.504 318.233,297.867 319.305,297.278Z" style="fill-opacity:0.06;"/>
            <path d="M264.745,275.053C265.556,275.383 267.164,275.178 267.94,278.242C264.585,277.863 265.435,276.691 264.745,275.053Z" style="fill-opacity:0.05;"/>
            <path d="M323.488,292.422C324.092,292.651 324.695,292.88 325.299,293.11C323.524,294.699 323.701,294.933 321.413,295.422C322.13,293.62 321.959,293.543 323.488,292.422Z" style="fill-opacity:0.08;"/>
            <path d="M286.286,356.405C286.185,358.226 286.253,358.234 286.177,358.372C285.5,359.589 285.038,359.159 284.345,360.406C283.935,355.897 286.054,356.525 286.286,356.405Z" style="fill-opacity:0.04;"/>
            <path d="M690.308,322.432C690.087,323.367 690.51,324.379 690.289,325.314C690.191,325.729 688.761,325.851 688.57,325.422C688.402,325.043 688.931,324.573 688.763,324.194C689.278,323.607 689.793,323.019 690.308,322.432Z" style="fill-opacity:0.09;"/>
            <path d="M300.743,346.539C300.315,348.756 300.349,348.74 299.012,350.515L298.602,349.541C299.757,348.097 299.491,348.022 300.743,346.539Z" style="fill-opacity:0.07;"/>
            <path d="M270.466,282.543C270.95,282.314 271.074,281.595 271.558,281.366C273.267,280.558 272.29,282.002 272.009,283.842C271.495,283.409 270.98,282.976 270.466,282.543Z" style="fill-opacity:0.09;"/>
            <path d="M294.54,339.341L295.973,339.438C294.984,341.243 294.993,341.212 293.336,342.43C293.737,341.4 294.139,340.371 294.54,339.341Z" style="fill-opacity:0.8;"/>
            <path d="M293.512,339.586C293.677,339.442 295.581,337.786 295.581,337.786C296.796,337.354 296.259,338.204 295.973,339.438L294.54,339.341L293.512,339.586Z" style="fill-opacity:0.94;"/>
            <path d="M303.373,361.402C302.397,362.518 302.455,362.451 301.285,363.356C301.606,361.757 301.702,361.643 303.373,361.402Z" style="fill-opacity:0.14;"/>
            <path d="M248.738,253.335C251.499,254.483 250.162,255.3 249.953,256.307C249.909,256.054 249.623,254.417 248.738,253.335Z" style="fill-opacity:0.09;"/>
            <path d="M315.481,346.418C314.477,346.973 314.409,346.686 313.358,347.208C314.135,345.353 314.666,346.137 315.481,346.418Z" style="fill-opacity:0.09;"/>
            <path d="M323.488,292.422L325.567,292.67L325.299,293.11C324.695,292.88 324.092,292.651 323.488,292.422Z" style="fill-opacity:0.1;"/>
            <path d="M304.772,308.192C305.266,308.793 305.761,309.393 306.256,309.994C305.761,309.393 305.266,308.793 304.772,308.192Z" style="fill-opacity:0.29;"/>
            <path d="M741.479,336.579C741.013,336.797 740.548,337.015 740.082,337.234C740.526,335.935 740.417,335.947 740.526,335.935C740.907,335.892 741.098,336.622 741.479,336.579Z" style="fill-opacity:0.06;"/>
            <path d="M270.447,327.775L272.461,327.731C271.374,327.979 271.449,328.088 270.447,327.775Z" style="fill-opacity:0.63;"/>
        </g>
    </g>
</svg>
